<svg xmlns="http://www.w3.org/2000/svg" class="editor-view__logo-preview" data-v-04588dbe="" data-v-0a059b40="" width="323.97998046875" height="41.44200134277344" viewBox="0 0 323.97998046875 41.44200134277344"><!----><svg id="name" viewBox="0 0 323.9779968261719 33.44200134277344" width="323.97799999999995" height="33.44200167038569" x="0" y="4" data-v-04588dbe="" style="fill: rgb(255, 255, 255);"><rect x="0" y="0" width="100%" height="100%" fill="none" data-v-04588dbe=""></rect><g data-v-04588dbe=""><path xmlns="http://www.w3.org/2000/svg" d="M10.30 0.78Q16.61 0.78 20.10 3.40Q23.60 6.03 23.60 11.18L23.60 11.18Q23.60 16.56 20.17 19.30Q16.74 22.03 10.99 22.03L10.99 22.03L7.54 22.03L7.54 32.66L0 32.66L0 0.78L10.30 0.78ZM10.35 16.61Q13.02 16.61 14.42 15.34Q15.82 14.08 15.82 11.18L15.82 11.18Q15.82 6.16 10.21 6.16L10.21 6.16L7.54 6.16L7.54 16.61L10.35 16.61ZM27.60 0.78L47.15 0.78L46.37 6.16L35.14 6.16L35.14 13.80L44.94 13.80L44.94 19.09L35.14 19.09L35.14 27.23L47.15 27.23L47.15 32.66L27.60 32.66L27.60 0.78ZM68.82 32.66L62.28 20.47L59.34 20.47L59.34 32.66L51.80 32.66L51.80 0.78L62.24 0.78Q68.77 0.78 72.06 3.17Q75.35 5.57 75.35 10.49L75.35 10.49Q75.35 13.57 73.88 15.62Q72.40 17.66 69.23 19.09L69.23 19.09L77.33 32.66L68.82 32.66ZM59.34 6.07L59.34 15.27L62.51 15.27Q65.04 15.27 66.31 14.12Q67.57 12.97 67.57 10.49L67.57 10.49Q67.57 8.19 66.22 7.13Q64.86 6.07 62.05 6.07L62.05 6.07L59.34 6.07ZM90.48 0.78Q96.78 0.78 100.28 3.40Q103.78 6.03 103.78 11.18L103.78 11.18Q103.78 16.56 100.35 19.30Q96.92 22.03 91.17 22.03L91.17 22.03L87.72 22.03L87.72 32.66L80.18 32.66L80.18 0.78L90.48 0.78ZM90.53 16.61Q93.20 16.61 94.60 15.34Q96.00 14.08 96.00 11.18L96.00 11.18Q96.00 6.16 90.39 6.16L90.39 6.16L87.72 6.16L87.72 16.61L90.53 16.61ZM132.20 0.78L132.20 22.08Q132.20 25.35 130.80 27.92Q129.40 30.50 126.59 31.97Q123.79 33.44 119.74 33.44L119.74 33.44Q113.67 33.44 110.49 30.36Q107.32 27.28 107.32 22.08L107.32 22.08L107.32 0.78L114.86 0.78L114.86 21.76Q114.86 24.84 116.03 26.33Q117.21 27.83 119.74 27.83L119.74 27.83Q122.31 27.83 123.49 26.33Q124.66 24.84 124.66 21.76L124.66 21.76L124.66 0.78L132.20 0.78ZM147.98 0Q151.57 0 154.21 1.01Q156.86 2.02 159.02 4.09L159.02 4.09L155.53 8.19Q152.26 5.52 148.53 5.52L148.53 5.52Q146.56 5.52 145.41 6.32Q144.26 7.13 144.26 8.65L144.26 8.65Q144.26 9.71 144.76 10.37Q145.27 11.04 146.56 11.64Q147.84 12.24 150.42 13.06L150.42 13.06Q155.30 14.63 157.60 16.90Q159.90 19.18 159.90 23.37L159.90 23.37Q159.90 26.36 158.38 28.63Q156.86 30.91 154.01 32.18Q151.16 33.44 147.25 33.44L147.25 33.44Q143.34 33.44 140.32 32.20Q137.31 30.96 135.15 28.89L135.15 28.89L138.97 24.70Q140.81 26.27 142.76 27.05Q144.72 27.83 147.02 27.83L147.02 27.83Q149.36 27.83 150.72 26.79Q152.08 25.76 152.08 23.92L152.08 23.92Q152.08 22.72 151.57 21.92Q151.06 21.11 149.82 20.47Q148.58 19.83 146.23 19.09L146.23 19.09Q140.94 17.48 138.71 15.13Q136.48 12.79 136.48 9.20L136.48 9.20Q136.48 6.44 137.95 4.35Q139.43 2.25 142.05 1.13Q144.67 0 147.98 0L147.98 0ZM161.46 0.78L185.84 0.78L185.10 6.58L177.24 6.58L177.24 32.66L169.69 32.66L169.69 6.58L161.46 6.58L161.46 0.78ZM213.67 32.66L205.67 32.66L204.01 25.81L194.72 25.81L193.11 32.66L185.29 32.66L194.90 0.78L204.06 0.78L213.67 32.66ZM199.36 6.26L196.01 20.33L202.72 20.33L199.36 6.26ZM216.02 0.78L223.56 0.78L223.56 32.66L216.02 32.66L216.02 0.78ZM233.91 0.78L241.87 0.78L231.70 15.09L242.70 32.66L233.96 32.66L223.79 15.64L233.91 0.78ZM269.93 32.66L261.92 32.66L260.27 25.81L250.98 25.81L249.37 32.66L241.55 32.66L251.16 0.78L260.31 0.78L269.93 32.66ZM255.62 6.26L252.26 20.33L258.98 20.33L255.62 6.26ZM297.07 32.66L289.06 32.66L287.41 25.81L278.12 25.81L276.51 32.66L268.69 32.66L278.30 0.78L287.45 0.78L297.07 32.66ZM282.76 6.26L279.40 20.33L286.12 20.33L282.76 6.26ZM323.98 0.78L323.98 32.66L314.36 32.66L305.16 7.96Q305.62 11.59 305.88 14.37Q306.13 17.16 306.13 20.98L306.13 20.98L306.13 32.66L299.41 32.66L299.41 0.78L308.80 0.78L318.23 25.53Q317.22 19.23 317.22 13.66L317.22 13.66L317.22 0.78L323.98 0.78Z"></path></g></svg><svg id="slogan" viewBox="0 0 0 0" width="0" height="NaN" x="0" y="41.44200134277344" data-v-04588dbe="" style="fill: rgb(0, 0, 0);"><rect x="0" y="0" width="100%" height="100%" fill="none" data-v-04588dbe=""></rect><g data-v-04588dbe=""><path xmlns="http://www.w3.org/2000/svg" d=""></path></g></svg></svg>